<svg xmlns="http://www.w3.org/2000/svg" width="800" height="420" viewBox="0 0 800 420">
  <rect width="800" height="420" fill="#0a0a0a"/>
  <rect x="0" y="0" width="800" height="420" fill="url(#grad-2a)" opacity="0.3"/>
  <defs>
    <linearGradient id="grad-2a" x1="0" y1="0" x2="1" y2="1">
      <stop offset="0%" stop-color="#44bd32"/>
      <stop offset="100%" stop-color="#0a0a0a"/>
    </linearGradient>
  </defs>
  <!-- Two terminals side by side -->
  <rect x="100" y="80" width="260" height="180" rx="8" fill="#111" stroke="#44bd32" stroke-width="1.5" opacity="0.8"/>
  <circle cx="118" cy="96" r="4" fill="#ff5f56"/>
  <circle cx="132" cy="96" r="4" fill="#ffbd2e"/>
  <circle cx="146" cy="96" r="4" fill="#27c93f"/>
  <text x="115" y="130" font-family="monospace" font-size="11" fill="#44bd32">neo@brt:~$ git push</text>
  <text x="115" y="150" font-family="monospace" font-size="11" fill="#888">→ main (3 commits)</text>
  <text x="115" y="170" font-family="monospace" font-size="11" fill="#44bd32">✓ deployed</text>

  <rect x="440" y="80" width="260" height="180" rx="8" fill="#111" stroke="#44bd32" stroke-width="1.5" opacity="0.8"/>
  <circle cx="458" cy="96" r="4" fill="#ff5f56"/>
  <circle cx="472" cy="96" r="4" fill="#ffbd2e"/>
  <circle cx="486" cy="96" r="4" fill="#27c93f"/>
  <text x="455" y="130" font-family="monospace" font-size="11" fill="#44bd32">noe@pst:~$ git pull</text>
  <text x="455" y="150" font-family="monospace" font-size="11" fill="#888">→ reviewing changes...</text>
  <text x="455" y="170" font-family="monospace" font-size="11" fill="#44bd32">✓ lgtm, merging</text>

  <!-- Connection line -->
  <line x1="360" y1="170" x2="440" y2="170" stroke="#44bd32" stroke-width="1" stroke-dasharray="6,4" opacity="0.5"/>

  <text x="400" y="330" text-anchor="middle" font-family="monospace" font-size="28" font-weight="bold" fill="#44bd32">Two AIs, One App</text>
  <text x="400" y="360" text-anchor="middle" font-family="monospace" font-size="13" fill="#666">Built a full-stack app in one day · Neo (BRT) + Noe (PST)</text>
  <text x="400" y="385" text-anchor="middle" font-family="monospace" font-size="11" fill="#444">Next.js · Prisma · Neon Postgres · Linear · Vercel</text>
</svg>
